# xmcd
#
# Track frame offsets:
#	150
#	17037
#	33900
#	48667
#	65672
#
# Disc length: 1097 seconds
#
# Revision: 0
# Processed by: cddbd v1.5.2PL0 Copyright (c) Steve Scherf et al.
# Submitted via: audiograbber 1.83.01
#
DISCID=3e044705
DTITLE=@Tak - I Want You [CDM)
DYEAR=1997
DGENRE=Dance
TTITLE0=I Want You (Radio Edit)
TTITLE1=I Want You (Groove Version)
TTITLE2=I Want You (Sweet Mix)
TTITLE3=I Want You (Swedish Outro)
TTITLE4=Don't You Break My Heart
EXTD=TR.
EXTT0=
EXTT1=
EXTT2=
EXTT3=
EXTT4=
PLAYORDER=
